Results
version=1
nRows=19
nColumns=24
inDegrees=yes
endheader
time	pelvis_tilt	pelvis_list	pelvis_rotation	pelvis_tx	pelvis_ty	pelvis_tz	hip_flexion_r	hip_adduction_r	hip_rotation_r	knee_angle_r	ankle_angle_r	subtalar_angle_r	mtp_angle_r	hip_flexion_l	hip_adduction_l	hip_rotation_l	knee_angle_l	ankle_angle_l	subtalar_angle_l	mtp_angle_l	lumbar_extension	lumbar_bending	lumbar_rotation
      1.77933333	     -1.69658132	      4.01689829	     -9.07504958	      1.51453583	      1.01754289	      0.27100082	     18.95831243	     -6.12264067	      1.39919102	    -60.08612991	      4.66532214	    -11.57486510	      4.08748131	     12.73365075	      9.27439111	     -2.96964482	    -17.71692992	      9.29869829	    -10.09573252	      2.95456556	      4.04982932	     -6.43162259	      5.73413967
      1.78350000	     -1.66459665	      3.90877141	     -8.93389137	      1.51924641	      1.01837085	      0.27063297	     19.49266269	     -5.85662075	      1.46623694	    -59.57069870	      4.79257014	    -11.76789829	      3.99935293	     12.21159199	      9.23063114	     -2.94323735	    -17.36698419	      9.37310083	     -9.84143183	      2.85739847	      3.85601873	     -6.33180892	      5.42534207
      1.78766667	     -1.66384923	      3.81953107	     -8.78506331	      1.52399908	      1.01909692	      0.27025869	     20.04669564	     -5.61647770	      1.51569930	    -59.02029832	      4.94403433	    -11.91300079	      3.90112049	     11.72744061	      9.20352208	     -2.90985681	    -17.01516551	      9.43067218	     -9.62420727	      2.75212085	      3.75449922	     -6.25663891	      5.18446657
      1.79183333	     -1.64961318	      3.74614881	     -8.64429531	      1.52872731	      1.01976924	      0.26989653	     20.58676749	     -5.39684627	      1.57233887	    -58.45071847	      5.10018015	    -12.01826101	      3.81506286	     11.23589863	      9.19624940	     -2.85970107	    -16.66882383	      9.47842423	     -9.44143892	      2.66608690	      3.63475554	     -6.19792797	      5.00584547
      1.79600000	     -1.65842116	      3.66119939	     -8.47372618	      1.53343591	      1.02037988	      0.26951861	     21.12436739	     -5.16938515	      1.59825451	    -57.83122294	      5.21808502	    -12.12908169	      3.72347055	     10.77807416	      9.17508787	     -2.77921782	    -16.34238412	      9.53464611	     -9.27334912	      2.58080808	      3.53390355	     -6.12928071	      4.79289070
      1.80016667	     -1.65433321	      3.58644985	     -8.30977680	      1.53818493	      1.02093053	      0.26915292	     21.64086000	     -4.95550278	      1.63487453	    -57.19137196	      5.32680252	    -12.21338730	      3.63183367	     10.30760241	      9.16673010	     -2.69849741	    -16.02294719	      9.59668158	     -9.10567620	      2.50079677	      3.42832925	     -6.07678225	      4.59491916
      1.80433333	     -1.68207197	      3.51078368	     -8.12118907	      1.54289904	      1.02139362	      0.26877024	     22.17327827	     -4.74589750	      1.64459668	    -56.51148695	      5.44487373	    -12.27285164	      3.57899550	      9.88961352	      9.15393291	     -2.58837235	    -15.73415756	      9.64321767	     -8.97042420	      2.45774425	      3.35591421	     -6.01911673	      4.44556647
      1.80850000	     -1.69639368	      3.43580283	     -7.93451100	      1.54759703	      1.02182735	      0.26839725	     22.67934114	     -4.54136414	      1.65590685	    -55.79964312	      5.50848458	    -12.32963416	      3.51689789	      9.46044100	      9.14312471	     -2.47253734	    -15.45313713	      9.71887612	     -8.83258798	      2.41123920	      3.26263513	     -5.96299000	      4.22525807
      1.81266667	     -1.70733508	      3.38438225	     -7.74610893	      1.55227498	      1.02219308	      0.26803914	     23.18117300	     -4.36486346	      1.67436459	    -55.07529942	      5.56438788	    -12.35723366	      3.42273115	      9.03857410	      9.15659320	     -2.34674776	    -15.17736914	      9.79471378	     -8.71244510	      2.34033127	      3.16790450	     -5.94125008	      3.96149150
      1.81683333	     -1.73943150	      3.30744092	     -7.52512052	      1.55695895	      1.02250577	      0.26764498	     23.67148035	     -4.17456222	      1.65182777	    -54.29683945	      5.62290771	    -12.35300931	      3.37789570	      8.65069442	      9.14239798	     -2.18667329	    -14.94400472	      9.86901232	     -8.60564776	      2.30909592	      3.09766636	     -5.88638328	      3.83026455
      1.82100000	     -1.75352023	      3.24712147	     -7.31172920	      1.56164851	      1.02278577	      0.26726942	     24.13818092	     -4.00488859	      1.64332841	    -53.50121919	      5.64749147	    -12.34301506	      3.32958271	      8.24239121	      9.14729844	     -2.01650262	    -14.70070832	      9.95201537	     -8.50072206	      2.27666882	      3.01172495	     -5.85239852	      3.63254630
      1.82516667	     -1.79404044	      3.20469837	     -7.08227957	      1.56629484	      1.02296495	      0.26688774	     24.62611538	     -3.85777783	      1.63064894	    -52.68544890	      5.65075483	    -12.32822202	      3.25191251	      7.87324739	      9.16749278	     -1.82862188	    -14.46764046	     10.03654235	     -8.43496979	      2.22389361	      2.94650881	     -5.84217815	      3.30489421
      1.82933333	     -1.83037474	      3.15278940	     -6.84061561	      1.57094865	      1.02313090	      0.26649475	     25.08811822	     -3.71228291	      1.59884330	    -51.82955133	      5.63816668	    -12.28637241	      3.17190040	      7.50531326	      9.17832037	     -1.61393263	    -14.25324659	     10.11089241	     -8.37714126	      2.16838781	      2.87777092	     -5.82137754	      3.08083179
      1.83350000	     -1.85842092	      3.10059616	     -6.59349248	      1.57560925	      1.02326691	      0.26610518	     25.52506202	     -3.57468704	      1.56353994	    -50.95150173	      5.61818550	    -12.19747308	      3.14076130	      7.13394910	      9.18646349	     -1.40110625	    -14.05130924	     10.19840798	     -8.29184043	      2.14964689	      2.80074382	     -5.80162856	      2.97854472
      1.83766667	     -1.90200149	      3.04815497	     -6.33249996	      1.58022906	      1.02334105	      0.26569731	     25.96392488	     -3.44654041	      1.51046795	    -50.03404709	      5.56644146	    -12.11323401	      3.10737508	      6.78580749	      9.19345612	     -1.15549312	    -13.86531807	     10.29588704	     -8.24168349	      2.12878795	      2.73571924	     -5.77909258	      2.77848644
      1.84183333	     -1.93980521	      3.02258873	     -6.06587385	      1.58487542	      1.02336195	      0.26529321	     26.39194836	     -3.35161784	      1.46982822	    -49.11140921	      5.50732355	    -12.03025794	      3.04669299	      6.42668859	      9.23102860	     -0.87729453	    -13.66270475	     10.37167962	     -8.25253406	      2.08161421	      2.67064212	     -5.79286500	      2.41317243
      1.84600000	     -1.99850301	      2.98825469	     -5.79858436	      1.58947853	      1.02331427	      0.26489218	     26.82730165	     -3.25413993	      1.41719399	    -48.16099190	      5.43470611	    -11.89202231	      3.02201650	      6.10853342	      9.24982933	     -0.62858591	    -13.49928915	     10.47186185	     -8.18983983	      2.06516940	      2.62663158	     -5.79221023	      2.31507373
      1.85016667	     -2.05160970	      2.96397700	     -5.51408831	      1.59409268	      1.02323746	      0.26447498	     27.24150976	     -3.17824723	      1.35687344	    -47.18315016	      5.33658902	    -11.78734132	      2.97778709	      5.78235785	      9.28281017	     -0.32300421	    -13.32802642	     10.56751516	     -8.22132459	      2.02573591	      2.58567185	     -5.80806456	      1.98071331
      1.85433333	     -2.10875580	      2.94135737	     -5.23004045	      1.59870860	      1.02312517	      0.26406017	     27.64285527	     -3.11193813	      1.29357242	    -46.18333031	      5.23186657	    -11.61257481	      2.95684957	      5.46916709	      9.31114626	     -0.04591243	    -13.18048618	     10.66852172	     -8.16706826	      2.01058039	      2.52951243	     -5.82050657	      1.86110714
